<svg width="262" height="243" viewBox="0 0 262 243" fill="none" xmlns="http://www.w3.org/2000/svg">
<path d="M93.562 0C42.0867 0 0.323744 41.4391 0 92.9143V187.447H94.5332C146.008 187.124 187.448 145.361 187.448 93.8855C187.448 42.0866 145.361 0 93.562 0Z" fill="#011837"/>
<path d="M0 220.469C1.29498 213.346 1.29498 207.195 11.9785 197.483C21.6908 188.742 31.4032 187.447 34.6406 187.447H0V220.469Z" fill="#011837"/>
<path d="M251.649 46.4479C242.272 55.3 232.896 56.6114 229.771 56.6114H263.212V23.1701C261.962 30.3829 261.962 36.6122 251.649 46.4479Z" fill="#ededf0"/>
<path d="M168.994 55.0365C117.519 55.3602 76.0797 97.1231 76.0797 148.598C76.0797 200.397 118.166 242.16 169.642 242.16C221.117 242.16 262.88 200.721 263.204 149.246V55.0365H168.994Z" fill="#ededf0"/>
</svg>
